inDegrees=yes
name=ik_lifting_orientations
DataType=double
version=3
OpenSimVersion=4.5-2024-01-10-34fd6af
endheader
time	pelvis_tilt	pelvis_list	pelvis_rotation	pelvis_tx	pelvis_ty	pelvis_tz	hip_flexion_r	hip_adduction_r	hip_rotation_r	knee_angle_r	knee_angle_r_beta	ankle_angle_r	subtalar_angle_r	mtp_angle_r	hip_flexion_l	hip_adduction_l	hip_rotation_l	knee_angle_l	knee_angle_l_beta	ankle_angle_l	subtalar_angle_l	mtp_angle_l	lumbar_extension	lumbar_bending	lumbar_rotation	arm_flex_r	arm_add_r	arm_rot_r	elbow_flex_r	pro_sup_r	wrist_flex_r	wrist_dev_r	arm_flex_l	arm_add_l	arm_rot_l	elbow_flex_l	pro_sup_l	wrist_flex_l	wrist_dev_l
1.82	-2.873666512356901	41.52829839206839	3.412784037168089	0	0.9399999998679526	0	44.08598047793193	-10.04466175180339	0	60.65589574341468	1.058645091469	-4.996209041370626	0	0	44.08598047793193	-10.04466175180339	0	60.65589574341468	1.058645091469	-4.996209041370626	0	0	-17.52529111533153	-45.80365191251796	-4.557649536753487	141.6001796027658	-18.86796104656383	87.87021565355582	77.18761417586614	-0.09738329244173992	0	0	0	-12.40870741209422	0	90.4367428759309	-0.09738329244173992	0	0
1.83	-2.884732611657323	41.53529974448746	3.40384276251855	0	0.9399999998679526	0	44.08635910895921	-10.04459722338589	0	60.65568230366748	1.058641366242657	-4.996216183132883	0	0	44.08635910895921	-10.04459722338589	0	60.65568230366748	1.058641366242657	-4.996216183132883	0	0	-17.7172667374961	-47.20164615741377	-4.806865125072111	141.1668138683958	-20.78371672582612	87.11902642061968	77.93446663217516	-0.09735524855876257	0	0	0	-12.40925763717673	0	90.43661694425994	-0.09735524855876257	0	0
1.84	-2.812594875572743	39.90363625651625	3.435918183931978	0	0.9399999998679526	0	44.08732618276812	-10.044433016566	0	60.65513728829871	1.058631853929997	-4.996234325862454	0	0	44.08732618276812	-10.044433016566	0	60.65513728829871	1.058631853929997	-4.996234325862454	0	0	-17.13518455561301	-46.00190634704291	-4.869993207572	142.1603986746711	-22.12566599754831	86.29150757811287	80.31509499652422	-0.09728360645275912	0	0	0	-12.4106632411498	0	90.43629523382008	-0.09728360645275912	0	0
1.85	-1.26682387901846	40.78268713019732	2.380619440913724	0	0.9399999998679526	0	44.08812143473568	-10.04429849915279	0	60.65468764620277	1.058624006194968	-4.996249177568158	0	0	44.08812143473568	-10.04429849915279	0	60.65468764620277	1.058624006194968	-4.996249177568158	0	0	-18.54796024614631	-46.79847595481061	-5.135421375886361	142.1488416567685	-22.13283794189083	86.29910488518733	80.31060173601942	-0.09722461395881131	0	0	0	-12.41182205275971	0	90.43603032679225	-0.09722461395881131	0	0
1.86	-1.300195168536965	40.79196524922227	2.393150001918648	0	0.9399999998679526	0	44.10901344316339	-10.0409128068669	0	60.6429179669091	1.058418586539389	-4.996615369394164	0	0	44.10901344316339	-10.0409128068669	0	60.6429179669091	1.058418586539389	-4.996615369394164	0	0	-18.49440033976561	-46.81884050727899	-5.124928207499624	142.1081733755782	-22.1045323969671	86.27676809647365	80.26552821505841	-0.09567002348113075	0	0	0	-12.4423888471408	0	90.42904941017282	-0.09567002348113075	0	0
1.87	-1.282747667433688	42.39538722887158	2.329465580067189	0	0.9399999998679526	0	44.10970262490909	-10.04080252325218	0	60.64252716450327	1.058411765750683	-4.996627262260539	0	0	44.10970262490909	-10.04080252325218	0	60.64252716450327	1.058411765750683	-4.996627262260539	0	0	-18.16443047926042	-49.22728278581397	-4.867539709329792	140.8736180303229	-23.27310886106021	85.89468920373531	79.41484905411063	-0.0956185710904825	0	0	0	-12.44340322084935	0	90.42881836237434	-0.0956185710904825	0	0
1.88	-1.282468053528769	42.3834448735749	2.318408246292785	0	0.9399999998679526	0	44.11059618769146	-10.04065920386228	0	60.64202229184954	1.058402954060572	-4.996642715777071	0	0	44.11059618769146	-10.04065920386228	0	60.64202229184954	1.058402954060572	-4.996642715777071	0	0	-19.38778962116717	-49.71824319181476	-6.158288494092078	142.4001419445226	-24.12529585088646	85.79443087451378	80.73531750759538	-0.0955519390739385	0	0	0	-12.44471543726666	0	90.42851915017425	-0.0955519390739385	0	0
1.89	-1.334668487845615	50.49291407147319	1.997591032721536	0	0.9399999998679526	0	44.11163775130296	-10.04049309366864	0	60.64143213671449	1.058392653910368	-4.996660596775198	0	0	44.11163775130296	-10.04049309366864	0	60.64143213671449	1.058392653910368	-4.996660596775198	0	0	-23.21941637474961	-57.41011026544465	-10.54805677735745	142.6130898142078	-24.60596887120861	86.34302383089943	81.2991847865582	-0.09547416866764064	0	0	0	-12.4462486102417	0	90.4281699209089	-0.09547416866764064	0	0
1.9	-0.28904469494832	50.45265900947697	0.6818897116446839	0	0.9399999998679526	0	44.12327841680384	-10.03921414118985	0	60.63311879362959	1.058247558701689	-4.996786903365588	0	0	44.12327841680384	-10.03921414118985	0	60.63311879362959	1.058247558701689	-4.996786903365588	0	0	-21.92482253080617	-58.87035116267958	-9.12608675988821	141.3314088258155	-26.56999135391797	84.29149706130271	82.13698263224273	-0.09451809831185561	0	0	0	-12.46656374430215	0	90.42387672256878	-0.09451809831185561	0	0
1.91	-0.2971913183047738	50.45106976359905	0.6955175437480382	0	0.9399999998679526	0	44.12365512280306	-10.03915532005462	0	60.63290525065765	1.058243831673734	-4.996793188662693	0	0	44.12365512280306	-10.03915532005462	0	60.63290525065765	1.058243831673734	-4.996793188662693	0	0	-21.9093172158233	-58.86327820855793	-9.118155949434851	141.3433148875117	-26.5557829376845	84.54455026893721	81.07207201533043	-0.09448987438314142	0	0	0	-12.46712142006941	0	90.42374998263793	-0.09448987438314142	0	0
1.92	0.6405110043951058	50.4522895111473	-0.513189381634787	0	0.9399999998679526	0	44.12406546000808	-10.03909132499305	0	60.63267259714854	1.058239771103983	-4.996800023495656	0	0	44.12406546000808	-10.03909132499305	0	60.63267259714854	1.058239771103983	-4.996800023495656	0	0	-21.88658098310237	-59.05205528105455	-8.357888264960183	141.5335567281651	-26.56555028037279	84.93714987532593	81.65321927662798	-0.09445912539807542	0	0	0	-12.46772905754706	0	90.42361190391112	-0.09445912539807542	0	0
1.93	1.368731624664699	49.62959234262406	-0.4856605942886423	0	0.9399999998679526	0	44.12529004056682	-10.03890004693049	0	60.63198033313435	1.058227688817643	-4.996820447103626	0	0	44.12529004056682	-10.03890004693049	0	60.63198033313435	1.058227688817643	-4.996820447103626	0	0	-21.32474074031721	-59.3887123953631	-8.085264668029806	139.8372824307482	-27.65113854678498	83.35042803638238	81.48975641902476	-0.09436744520444464	0	0	0	-12.46953922133181	0	90.42320021273608	-0.09436744520444464	0	0
1.94	1.345106562554533	49.63104675639716	-0.4714714599712543	0	0.9399999998679526	0	44.12556180623057	-10.03885777324815	0	60.6318264078739	1.058225002315046	-4.996824955142764	0	0	44.12556180623057	-10.03885777324815	0	60.6318264078739	1.058225002315046	-4.996824955142764	0	0	-21.26803448706986	-59.39476456783135	-8.051466005344423	140.888463318382	-28.28410045076181	83.98442756887219	82.76734685956755	-0.09434708045176496	0	0	0	-12.46994159691909	0	90.42310876454415	-0.09434708045176496	0	0
1.95	1.375511106957912	49.63135328122402	-0.4883171002280672	0	0.9399999998679526	0	44.1278707476935	-10.03851692043206	0	60.6305103285406	1.058202032397462	-4.996860582941584	0	0	44.1278707476935	-10.03851692043206	0	60.6305103285406	1.058202032397462	-4.996860582941584	0	0	-21.30692300793133	-59.37987839652321	-8.071596770431603	140.8932195113998	-28.27222987904867	83.99677552518607	82.76828382273486	-0.09417278428890589	0	0	0	-12.47340156483352	0	90.42232608618103	-0.09417278428890589	0	0
1.96	2.15802350264022	48.84556964127462	-0.4126332540955631	0	0.9399999998679526	0	44.12872589757128	-10.03838466433951	0	60.63002642385244	1.058193586667388	-4.996874647608085	0	0	44.12872589757128	-10.03838466433951	0	60.63002642385244	1.058193586667388	-4.996874647608085	0	0	-21.25891711246881	-59.30364352110057	-7.52026653978519	140.3446628225474	-29.49076751550796	84.432457048194	82.19996759805483	-0.09410868010195174	0	0	0	-12.47466825342395	0	90.42203822550046	-0.09410868010195174	0	0
1.97	2.055861032565287	47.21598510627126	-0.2147745416302652	0	0.9399999998679526	0	44.1298549084586	-10.03821100564436	0	60.62938661201333	1.058182419844202	-4.996893078564918	0	0	44.1298549084586	-10.03821100564436	0	60.62938661201333	1.058182419844202	-4.996893078564918	0	0	-20.44047396317646	-57.71980726488377	-6.624006329283646	141.1217324551453	-29.63378512371778	84.54558327971536	82.96321085482153	-0.09402397230677093	0	0	0	-12.47634306309413	0	90.42165784409401	-0.09402397230677093	0	0
1.98	2.081067877089101	47.23114028155528	-0.2424386332727444	0	0.9399999998679526	0	44.13850952981439	-10.03731644123014	0	60.62312825256872	1.058073190866121	-4.996979584683416	0	0	44.13850952981439	-10.03731644123014	0	60.62312825256872	1.058073190866121	-4.996979584683416	0	0	-19.45754826592784	-57.8455200852982	-7.307447387803042	139.8101072997051	-28.67477876068916	83.02112423273336	81.31167439161851	-0.09330590378864279	0	0	0	-12.49170629294214	0	90.41843338773975	-0.09330590378864279	0	0
1.99	3.660658780307496	46.3552658758648	-1.300169383300839	0	0.9399999998679526	0	44.13878098413543	-10.03727626344448	0	60.62297145620852	1.05807045425338	-4.996983808269619	0	0	44.13878098413543	-10.03727626344448	0	60.62297145620852	1.05807045425338	-4.996983808269619	0	0	-20.14117659835099	-56.99163984890411	-6.864423679593592	139.7530104997532	-28.64240740198296	83.01419147000993	81.30886388977424	-0.09328533554789693	0	0	0	-12.49211619208688	0	90.41834102592468	-0.09328533554789693	0	0
2	3.699685621266889	46.37324645709073	-1.323235908178577	0	0.9399999998679526	0	44.13974656901233	-10.03712998567173	0	60.62242465765849	1.058060910818337	-4.99699924797606	0	0	44.13974656901233	-10.03712998567173	0	60.62242465765849	1.058060910818337	-4.99699924797606	0	0	-19.05571405713485	-57.87312090148124	-5.667449528987802	139.0038141928778	-30.34769385418587	83.17884969448626	80.57273704313164	-0.09321272008768729	0	0	0	-12.49355408803581	0	90.41801494543928	-0.09321272008768729	0	0
2.01	3.696896648838351	46.37165533705426	-1.322427763666396	0	0.9399999998679526	0	44.14895407405016	-10.03582304356751	0	60.6168548460328	1.057963699266753	-4.997134757048073	0	0	44.14895407405016	-10.03582304356751	0	60.6168548460328	1.057963699266753	-4.997134757048073	0	0	-19.04030777829267	-57.87462638477953	-5.662552567225754	139.1157451477861	-30.03060711119978	82.67444596291118	79.74174551371587	-0.09250744065811599	0	0	0	-12.5077436904296	0	90.41484788736328	-0.09250744065811599	0	0
2.02	3.710983164232504	46.34328642236593	-1.339073514861973	0	0.9399999998679526	0	44.15016925956147	-10.03564383375626	0	60.61616605796742	1.057951677647163	-4.997153457036423	0	0	44.15016925956147	-10.03564383375626	0	60.61616605796742	1.057951677647163	-4.997153457036423	0	0	-17.54588336378474	-59.14081791410729	-4.857368574918563	137.8402185584535	-31.0546715700855	82.12874933130971	79.1664077663722	-0.09241576904420147	0	0	0	-12.50956217148327	0	90.4144362352186	-0.09241576904420147	0	0
2.03	3.703981277125819	46.37185911842549	-1.344358262026378	0	0.9399999998679526	0	44.15048987282533	-10.03559673125581	0	60.61598407482177	1.057948501442089	-4.997158365750773	0	0	44.15048987282533	-10.03559673125581	0	60.61598407482177	1.057948501442089	-4.997158365750773	0	0	-17.57926018111148	-59.16212110155629	-4.898592922244055	137.7586457186427	-31.03947550884165	81.71433264336646	78.57567108132415	-0.09239156463612087	0	0	0	-12.51004257771791	0	90.41432754513326	-0.09239156463612087	0	0
2.04	5.229082660002787	45.4566176509249	-2.355038850484627	0	0.9399999998679526	0	44.15071013653186	-10.03556495577687	0	60.61585729171679	1.057946288659471	-4.997161664921506	0	0	44.15071013653186	-10.03556495577687	0	60.61585729171679	1.057946288659471	-4.997161664921506	0	0	-18.30559164995286	-58.32075313995959	-4.498782825506723	137.6274396056635	-31.05903386721188	81.53631593127947	76.98619009965289	-0.09237484462073234	0	0	0	-12.5103759709595	0	90.41425246382268	-0.09237484462073234	0	0
2.05	5.235829822387803	45.46295834384771	-2.342888758938654	0	0.9399999998679526	0	44.15095458242329	-10.0355290801141	0	60.61571855204215	1.057943867195345	-4.997165401804264	0	0	44.15095458242329	-10.0355290801141	0	60.61571855204215	1.057943867195345	-4.997165401804264	0	0	-18.39141085113786	-58.29376452743907	-4.557987998445869	137.1619927531189	-31.37619045696042	81.22153219672718	77.14584753214238	-0.09235638869471081	0	0	0	-12.51074229846103	0	90.41416958734268	-0.09235638869471081	0	0
